<?xml version="1.0" encoding="utf-8"?>
<!DOCTYPE svg PUBLIC "-//W3C//DTD SVG 1.1//EN" "http://www.w3.org/Graphics/SVG/1.1/DTD/svg11.dtd">
<svg version="1.1" id="gamesdirectory" xmlns="http://www.w3.org/2000/svg" xmlns:xlink="http://www.w3.org/1999/xlink" x="0px" y="0px" width="100px" height="100px" viewBox="0 0 100 100" enable-background="new 0 0 100 100" xml:space="preserve">
	<path id="d" fill-rule="evenodd" clip-rule="evenodd" fill="#ed93b4" d="M72.721,0.843c-0.504-0.302-1.141-0.394-1.461-0.405
		c-0.361-0.014-1.064,0.043-1.678,0.33C69.385,0.86,68.234,1.5,67.85,2.782c-1.236,4.133-2.127,13.028-2.164,13.372
		c-4.59,0.514-9.121,2.148-13.172,4.984c-12.906,9.039-16.043,26.827-7.005,39.732c9.038,12.908,26.828,16.045,39.734,7.008
		c12.854-9,16.012-26.677,7.113-39.571l0.004-0.002L73.805,1.806C73.805,1.806,73.34,1.213,72.721,0.843z M57.512,34.916
		c0.516-2.91,3.289-4.853,6.197-4.339c2.91,0.512,4.854,3.287,4.34,6.197c-0.514,2.909-3.287,4.851-6.197,4.338
		C58.941,40.599,57,37.824,57.512,34.916z M59.258,55.824c-2.91-0.514-4.853-3.287-4.338-6.197c0.514-2.909,3.287-4.853,6.197-4.34
		c2.908,0.513,4.852,3.287,4.338,6.197C64.941,54.395,62.168,56.338,59.258,55.824z M80.166,54.078
		c-0.514,2.91-3.287,4.854-6.197,4.34c-2.908-0.512-4.852-3.287-4.338-6.197c0.512-2.909,3.287-4.852,6.197-4.339
		C78.736,48.395,80.68,51.168,80.166,54.078z M82.76,39.368c-0.512,2.909-3.287,4.852-6.195,4.339
		c-2.912-0.514-4.854-3.288-4.34-6.197c0.514-2.909,3.287-4.853,6.197-4.339C81.332,33.683,83.275,36.458,82.76,39.368z"/>

	<path id="g" fill-rule="evenodd" clip-rule="evenodd" fill="#ac92ec" d="M72.939,81.01l-4.883-6.975
		c-9.194,0.189-18.312-4.061-23.983-12.158c-3.884-5.547-5.513-11.995-5.091-18.262C31,41.331,22.094,42.529,14.762,47.663
		C1.855,56.699-1.282,74.488,7.756,87.396c9.038,12.906,26.826,16.043,39.734,7.006c4.05-2.838,7.136-6.535,9.19-10.672
		c0.338,0.086,8.998,2.289,13.305,2.539c1.336,0.078,2.33-0.783,2.484-0.938c0.48-0.477,0.773-1.121,0.887-1.465
		c0.098-0.301,0.229-0.934,0.119-1.51C73.336,81.648,72.939,81.01,72.939,81.01z M40.926,78.33l-6.402,4.482l-4.484-6.402
		l-6.403,4.482l-4.482-6.402l6.402-4.482l-4.483-6.402l6.403-4.482l4.482,6.404l6.403-4.484l4.483,6.402l-6.403,4.482L40.926,78.33z"
		/>
</svg>
