<?xml version="1.0" encoding="UTF-8"?>
<svg width="96px" height="100px" viewBox="0 0 96 100" version="1.1" xmlns="http://www.w3.org/2000/svg" xmlns:xlink="http://www.w3.org/1999/xlink">
    <!-- Generator: Sketch 40.3 (33839) - http://www.bohemiancoding.com/sketch -->
    <title>gamesdirectory-logo</title>
    <desc>Created with Sketch.</desc>
    <defs></defs>
    <g id="Page-1" stroke="none" stroke-width="1" fill="none" fill-rule="evenodd">
        <g id="gamesdirectory-logo" fill="#FFFFFF">
            <path d="M70.721,0.843 C70.217,0.541 69.58,0.449 69.26,0.438 C68.899,0.424 68.196,0.481 67.582,0.768 C67.385,0.86 66.234,1.5 65.85,2.782 C64.614,6.915 63.723,15.81 63.686,16.154 C59.096,16.668 54.565,18.302 50.514,21.138 C37.608,30.177 34.471,47.965 43.509,60.87 C52.547,73.778 70.337,76.915 83.243,67.878 C96.097,58.878 99.255,41.201 90.356,28.307 L90.36,28.305 L71.805,1.806 C71.805,1.806 71.34,1.213 70.721,0.843 L70.721,0.843 Z M55.512,34.916 C56.028,32.006 58.801,30.063 61.709,30.577 C64.619,31.089 66.563,33.864 66.049,36.774 C65.535,39.683 62.762,41.625 59.852,41.112 C56.941,40.599 55,37.824 55.512,34.916 L55.512,34.916 Z M57.258,55.824 C54.348,55.31 52.405,52.537 52.92,49.627 C53.434,46.718 56.207,44.774 59.117,45.287 C62.025,45.8 63.969,48.574 63.455,51.484 C62.941,54.395 60.168,56.338 57.258,55.824 L57.258,55.824 Z M78.166,54.078 C77.652,56.988 74.879,58.932 71.969,58.418 C69.061,57.906 67.117,55.131 67.631,52.221 C68.143,49.312 70.918,47.369 73.828,47.882 C76.736,48.395 78.68,51.168 78.166,54.078 L78.166,54.078 Z M80.76,39.368 C80.248,42.277 77.473,44.22 74.565,43.707 C71.653,43.193 69.711,40.419 70.225,37.51 C70.739,34.601 73.512,32.657 76.422,33.171 C79.332,33.683 81.275,36.458 80.76,39.368 L80.76,39.368 Z" id="d"></path>
            <path d="M70.939,81.01 L66.056,74.035 C56.862,74.224 47.744,69.974 42.073,61.877 C38.189,56.33 36.56,49.882 36.982,43.615 C29,41.331 20.094,42.529 12.762,47.663 C-0.145,56.699 -3.282,74.488 5.756,87.396 C14.794,100.302 32.582,103.439 45.49,94.402 C49.54,91.564 52.626,87.867 54.68,83.73 C55.018,83.816 63.678,86.019 67.985,86.269 C69.321,86.347 70.315,85.486 70.469,85.331 C70.949,84.854 71.242,84.21 71.356,83.866 C71.454,83.565 71.585,82.932 71.475,82.356 C71.336,81.648 70.939,81.01 70.939,81.01 L70.939,81.01 Z M38.926,78.33 L32.524,82.812 L28.04,76.41 L21.637,80.892 L17.155,74.49 L23.557,70.008 L19.074,63.606 L25.477,59.124 L29.959,65.528 L36.362,61.044 L40.845,67.446 L34.442,71.928 L38.926,78.33 L38.926,78.33 Z" id="g"></path>
        </g>
    </g>
</svg>